<?xml version="1.0" encoding="utf-8"?><!-- Uploaded to: SVG Repo, www.svgrepo.com, Generator: SVG Repo Mixer Tools -->
<svg width="800px" height="800px" viewBox="0 0 48 48" xmlns="http://www.w3.org/2000/svg"><title>70 Basic icons by Xicons.co</title><path d="M41.17,18.08L25.63,1.91a3.13,3.13,0,0,0-4.28-.11L4.95,17.12a3,3,0,0,0-.12,4.22L20.37,37.52a3.06,3.06,0,0,0,4.28.11l16.4-15.33h0A3,3,0,0,0,41.17,18.08Z" fill="#9363cf"/><path d="M23.13,48A3,3,0,0,1,21,47.13L5,31.39a2,2,0,1,1,2.81-2.85l15.3,15.07L38.43,28.54a2,2,0,1,1,2.81,2.85l-16,15.74A3,3,0,0,1,23.13,48Z" fill="#bea0e2"/></svg>