<?xml version="1.0" encoding="utf-8"?><!-- Uploaded to: SVG Repo, www.svgrepo.com, Generator: SVG Repo Mixer Tools -->
<svg width="800px" height="800px" viewBox="0 0 24 24" xmlns="http://www.w3.org/2000/svg" id="create-note-alt" class="icon glyph"><path d="M20,22H4a2,2,0,0,1-2-2V4A2,2,0,0,1,4,2h8a1,1,0,0,1,0,2H4V20H20V12a1,1,0,0,1,2,0v8A2,2,0,0,1,20,22Z" style="fill:#231f20"></path><path d="M22,1.94a1,1,0,0,0-.87-.9,9.45,9.45,0,0,0-2.83.17,1,1,0,0,0-.76.72l-.18.72-.83-.33a1,1,0,0,0-1,.13,4.87,4.87,0,0,0-.7.67C13,5.15,13,8.36,13,9.58l-1.72,1.71a1,1,0,0,0,0,1.42,1,1,0,0,0,1.42,0L14.42,11h.36a7.2,7.2,0,0,0,5.41-2.12h0C22.37,6.39,22,2.12,22,1.94Z"></path></svg>