<?xml version="1.0" encoding="utf-8"?><!-- Uploaded to: SVG Repo, www.svgrepo.com, Generator: SVG Repo Mixer Tools -->
<svg fill="#37455c" width="800px" height="800px" viewBox="0 0 24 24" xmlns="http://www.w3.org/2000/svg" id="settings-alt" class="icon glyph"><path d="M21.9,10.59,20,8.69V6a2,2,0,0,0-2-2H15.31l-1.9-1.9a2,2,0,0,0-2.82,0L8.69,4H6A2,2,0,0,0,4,6V8.69l-1.9,1.9a2,2,0,0,0,0,2.82L4,15.31V18a2,2,0,0,0,2,2H8.69l1.9,1.9a2,2,0,0,0,2.82,0l1.9-1.9H18a2,2,0,0,0,2-2V15.31l1.9-1.9A2,2,0,0,0,21.9,10.59ZM12,16a4,4,0,1,1,4-4A4,4,0,0,1,12,16Z"></path></svg>