<?xml version="1.0" encoding="utf-8"?><!-- Uploaded to: SVG Repo, www.svgrepo.com, Generator: SVG Repo Mixer Tools -->
<svg width="800px" height="800px" viewBox="0 0 24 24" fill="none" xmlns="http://www.w3.org/2000/svg">
<path d="M17 3C19.2091 3 21 4.9018 21 7.24779V14.6814C21 17.0274 19.2091 18.9292 17 18.9292H14.6667L12.12 20.9575C12.0489 21.0142 11.9511 21.0142 11.88 20.9575L9.33333 18.9292H7C4.79086 18.9292 3 17.0274 3 14.6814V7.24779C3 4.9018 4.79086 3 7 3H17Z" stroke="#000000" stroke-width="2" stroke-linecap="round"/>
<path d="M11 8C11 7.44772 11.4477 7 12 7C12.5523 7 13 7.44772 13 8V15C13 15.5523 12.5523 16 12 16C11.4477 16 11 15.5523 11 15V8Z" fill="#000000"/>
<path d="M8 8C7.44772 8 7 8.44772 7 9V14C7 14.5523 7.44772 15 8 15C8.55228 15 9 14.5523 9 14V9C9 8.44772 8.55228 8 8 8Z" fill="#000000"/>
<path d="M16 8C15.4477 8 15 8.44772 15 9V14C15 14.5523 15.4477 15 16 15C16.5523 15 17 14.5523 17 14V9C17 8.44772 16.5523 8 16 8Z" fill="#000000"/>
</svg>