<?xml version="1.0" encoding="utf-8"?><!-- Uploaded to: SVG Repo, www.svgrepo.com, Generator: SVG Repo Mixer Tools -->
<svg width="800px" height="800px" viewBox="0 0 48 48" xmlns="http://www.w3.org/2000/svg"><title>70 Basic icons by Xicons.co</title><path d="M20,6H8A2,2,0,0,0,6,8V20a2,2,0,0,0,2,2H20a2,2,0,0,0,2-2V8A2,2,0,0,0,20,6Z" fill="#ea802a"/><path d="M40,6H28a2,2,0,0,0-2,2V20a2,2,0,0,0,2,2H40a2,2,0,0,0,2-2V8A2,2,0,0,0,40,6Z" fill="#ea802a"/><path d="M20,26H8a2,2,0,0,0-2,2V40a2,2,0,0,0,2,2H20a2,2,0,0,0,2-2V28A2,2,0,0,0,20,26Z" fill="#ea802a"/><path d="M40,26H28a2,2,0,0,0-2,2V40a2,2,0,0,0,2,2H40a2,2,0,0,0,2-2V28A2,2,0,0,0,40,26Z" fill="#ea802a"/></svg>