<?xml version="1.0" encoding="utf-8"?><!-- Uploaded to: SVG Repo, www.svgrepo.com, Generator: SVG Repo Mixer Tools -->
<svg width="800px" height="800px" viewBox="0 0 24 24" xmlns="http://www.w3.org/2000/svg" id="receipt" class="icon glyph"><path d="M20,15H18V3a1,1,0,0,0-1.45-.89L13.07,3.85,10.55,2.17a1,1,0,0,0-1.1,0L6.93,3.85,3.45,2.11A1,1,0,0,0,2,3V17.83A4.16,4.16,0,0,0,5.84,22H18a4,4,0,0,0,4-4V17A2,2,0,0,0,20,15ZM8,9h4a1,1,0,0,1,0,2H8A1,1,0,0,1,8,9Zm12,9a2,2,0,0,1-2,2H9.46a2.87,2.87,0,0,0,.2-.39l0-.07a3.28,3.28,0,0,0,.2-.65,1,1,0,0,0,0-.17A4.28,4.28,0,0,0,10,18V17H20Z" style="fill:#37455c"></path></svg>