<?xml version="1.0" encoding="utf-8"?><!-- Uploaded to: SVG Repo, www.svgrepo.com, Generator: SVG Repo Mixer Tools -->
<svg width="800px" height="800px" viewBox="0 0 24 24" fill="none" xmlns="http://www.w3.org/2000/svg">
<path d="M15.3429 3.77143C15.3429 3.34538 15.6882 3 16.1143 3C18.8126 3 21 5.18741 21 7.88571C21 8.31176 20.6546 8.65714 20.2286 8.65714C19.8025 8.65714 19.4571 8.31176 19.4571 7.88571C19.4571 6.03951 17.9605 4.54286 16.1143 4.54286C15.6882 4.54286 15.3429 4.19748 15.3429 3.77143Z" fill="#363853"/>
<path d="M12 6.6C10.5798 6.6 9.42857 7.75127 9.42857 9.17143C9.42857 10.5916 10.5798 11.7429 12 11.7429C13.4202 11.7429 14.5714 10.5916 14.5714 9.17143C14.5714 7.75127 13.4202 6.6 12 6.6Z" fill="#363853"/>
<path d="M10.2665 12.524C9.04308 12.7193 8.14286 13.7746 8.14286 15.0135V15.2038C8.14286 16.1327 8.89586 16.8857 9.82474 16.8857H14.1753C15.1041 16.8857 15.8571 16.1327 15.8571 15.2038V15.0135C15.8571 13.7746 14.9569 12.7193 13.7335 12.524C12.5851 12.3408 11.4149 12.3408 10.2665 12.524Z" fill="#363853"/>
<path d="M4.54286 16.1143C4.54286 15.6882 4.19748 15.3429 3.77143 15.3429C3.34538 15.3429 3 15.6882 3 16.1143C3 18.8126 5.18741 21 7.88571 21C8.31176 21 8.65714 20.6546 8.65714 20.2286C8.65714 19.8025 8.31176 19.4571 7.88571 19.4571C6.03951 19.4571 4.54286 17.9605 4.54286 16.1143Z" fill="#363853"/>
<path d="M3 7.88571C3 5.18741 5.18741 3 7.88571 3C8.31176 3 8.65714 3.34538 8.65714 3.77143C8.65714 4.19748 8.31176 4.54286 7.88571 4.54286C6.03951 4.54286 4.54286 6.03951 4.54286 7.88571C4.54286 8.31176 4.19748 8.65714 3.77143 8.65714C3.34538 8.65714 3 8.31176 3 7.88571Z" fill="#363853"/>
<path d="M21 16.1143C21 15.6882 20.6546 15.3429 20.2286 15.3429C19.8025 15.3429 19.4571 15.6882 19.4571 16.1143C19.4571 17.9605 17.9605 19.4571 16.1143 19.4571C15.6882 19.4571 15.3429 19.8025 15.3429 20.2286C15.3429 20.6546 15.6882 21 16.1143 21C18.8126 21 21 18.8126 21 16.1143Z" fill="#363853"/>
</svg>