<?xml version="1.0" ?>

<!-- Uploaded to: SVG Repo, www.svgrepo.com, Generator: SVG Repo Mixer Tools -->
<svg fill="#000000" width="800px" height="800px" viewBox="0 0 512 512" version="1.1" xml:space="preserve" xmlns="http://www.w3.org/2000/svg" xmlns:xlink="http://www.w3.org/1999/xlink">

<g id="umbrella-rain-heart-love-valentine">

<path d="M408,240c-4.422,0-8-3.582-8-8v-8c0-4.418,3.578-8,8-8s8,3.582,8,8v8C416,236.418,412.422,240,408,240z M416,224   c0,3.12-1.84,5.92-4.64,7.28c-2.8,1.28-6.16,0.88-8.56-1.2c-21.593-18.289-52.467-18.817-74.8-1.973V232c0,4.418-3.578,8-8,8   s-8-3.582-8-8v-5.09c-10.189-12.639-24.357-21.457-40-25.055v70.993c16.344-2.997,30.919,3.847,39.719,15.301   c12.523,16.301,10.68,39.992-4.273,55.109l-32.5,32.852c-0.911,0.921-1.933,1.679-2.945,2.447V416c0,30.88-25.12,56-56,56   s-56-25.12-56-56v-16c0-8.8,7.2-16,16-16s16,7.2,16,16v16c0,13.2,10.8,24,24,24s24-10.8,24-24v-37.441   c-1.014-0.77-2.037-1.528-2.949-2.45l-32.5-32.855c-14.957-15.117-16.793-38.809-4.27-55.105   c8.784-11.433,23.353-18.29,39.719-15.295v-70.998c-15.64,3.598-29.809,12.417-40,25.055V232c0,4.418-3.582,8-8,8s-8-3.582-8-8   v-3.893c-21.415-16.152-50.585-16.152-72,0V232c0,4.418-3.582,8-8,8s-8-3.582-8-8v-8c0-85.6,67.44-155.6,152-159.76   c0.016-0.001,0.032,0,0.048-0.001C248.046,64.155,248,64.084,248,64V40c0-4.418,3.582-8,8-8s8,3.582,8,8v24   c0,0.084-0.046,0.155-0.048,0.239c0.016,0.001,0.032,0,0.048,0.001C348.56,68.4,416,138.4,416,224z M261.688,295.406   c-3,3.039-8.367,3.039-11.375,0c-10.258-10.369-27.721-10.036-37.344,2.492c-7.672,9.984-6.402,24.645,2.957,34.105l32.5,32.855   c4.055,4.094,11.098,4.094,15.145,0l32.5-32.855c9.359-9.457,10.633-24.121,2.961-34.105   C289.363,285.312,271.872,285.111,261.688,295.406z M319.733,211.334C318.043,155.426,304.463,100.409,256,72   c-48.543,28.456-62.048,83.579-63.734,139.337C208.753,194.068,231.904,184,256,184C280.098,184,303.251,194.067,319.733,211.334z"/>

</g>

<g id="Layer_1"/>

</svg>