<svg version="1.1" id="Layer_1" xmlns="http://www.w3.org/2000/svg" xmlns:xlink="http://www.w3.org/1999/xlink" x="0px" y="0px"
	 width="100%" viewBox="0 0 5120 5120" enable-background="new 0 0 5120 5120" xml:space="preserve">
<path fill="#2DA8DD" opacity="1.000000" stroke="none" 
	d="
M2045.869873,3689.452637 
	C1979.606445,3675.872803 1914.986938,3662.733887 1850.372681,3649.569824 
	C1722.452515,3623.508545 1594.531128,3597.453857 1466.618286,3571.357422 
	C1366.763306,3550.985107 1266.920410,3530.553955 1167.072266,3510.147949 
	C1143.582397,3505.347168 1120.091675,3500.549805 1096.605591,3495.730225 
	C1092.039673,3494.793213 1087.452637,3493.917236 1082.945557,3492.743652 
	C1064.982178,3488.064941 1057.494507,3478.772705 1056.728027,3460.154541 
	C1056.508789,3454.830078 1056.673584,3449.489990 1056.673584,3444.156982 
	C1056.672363,3196.174805 1056.672607,2948.192383 1056.672607,2700.210205 
	C1056.672607,2692.269287 1056.672607,2684.328369 1056.672607,2675.940186 
	C1051.906250,2674.270752 1048.357178,2672.555908 1044.613770,2671.786133 
	C972.848572,2657.031494 901.058716,2642.396484 829.281128,2627.701660 
	C824.066223,2626.633789 818.762634,2625.717285 813.748108,2624.004639 
	C796.723328,2618.188721 790.138733,2598.918701 795.553772,2586.942383 
	C797.746948,2582.091553 799.472839,2577.031982 801.569397,2572.135010 
	C851.126709,2456.382324 900.731140,2340.649658 950.271851,2224.889648 
	C983.036743,2148.328857 1015.713440,2071.730713 1048.437012,1995.152222 
	C1051.578857,1987.799927 1054.906494,1980.523926 1057.913208,1973.117310 
	C1062.832275,1960.999268 1071.400513,1954.405151 1084.522827,1951.811768 
	C1142.023071,1940.447998 1199.382446,1928.375000 1256.819214,1916.688232 
	C1331.223145,1901.549316 1405.655518,1886.550781 1480.061157,1871.419922 
	C1484.610352,1870.494751 1489.031860,1868.941162 1494.630859,1867.365479 
	C1494.785645,1862.982788 1495.477783,1858.463745 1495.023560,1854.063110 
	C1482.181152,1729.653564 1513.215454,1617.115601 1589.271606,1518.140015 
	C1663.955200,1420.950195 1762.863281,1361.222778 1883.845215,1341.561646 
	C2063.832031,1312.311279 2233.312012,1386.603394 2336.202148,1525.290405 
	C2366.649170,1566.330078 2389.691406,1611.147827 2405.236816,1659.831787 
	C2407.245850,1666.122437 2409.614258,1672.298218 2412.108887,1679.354858 
	C2416.357178,1679.126099 2420.288330,1679.393677 2424.012939,1678.640747 
	C2468.408936,1669.666870 2512.802734,1660.676758 2557.119141,1651.321289 
	C2564.468262,1649.769775 2571.264160,1649.552612 2578.698242,1651.086304 
	C2688.288818,1673.695068 2797.932373,1696.046265 2907.572998,1718.411743 
	C2995.668213,1736.382324 3083.783203,1754.255615 3171.877197,1772.232910 
	C3279.557617,1794.207275 3387.220947,1816.263672 3494.899170,1838.249512 
	C3576.468750,1854.904419 3658.053467,1871.486572 3739.625000,1888.132568 
	C3842.734619,1909.173706 3945.785400,1930.511841 4048.998535,1951.031982 
	C4065.232178,1954.259521 4074.787598,1962.241455 4081.105469,1977.130737 
	C4128.729492,2089.358154 4176.721680,2201.429443 4224.654785,2313.525635 
	C4261.849121,2400.508545 4299.128906,2487.454590 4336.352539,2574.425049 
	C4338.448242,2579.320801 4340.910645,2584.143311 4342.289062,2589.246826 
	C4346.131348,2603.466797 4338.757324,2618.149658 4325.082031,2623.489746 
	C4320.159668,2625.412354 4314.832031,2626.393311 4309.618164,2627.456787 
	C4236.523926,2642.364502 4163.415527,2657.205322 4090.319580,2672.104736 
	C4087.772217,2672.623779 4085.314209,2673.579346 4081.851807,2674.620850 
	C4081.234131,2678.434814 4080.280762,2682.198486 4080.087646,2686.000488 
	C4079.783691,2691.985107 4079.983398,2697.995605 4079.983398,2703.995117 
	C4079.982178,2950.644287 4079.982666,3197.293213 4079.982178,3443.942383 
	C4079.982178,3449.275391 4080.095947,3454.611328 4079.952393,3459.940674 
	C4079.432373,3479.245850 4072.840088,3488.065918 4054.302002,3492.540039 
	C4037.478760,3496.600342 4020.462891,3499.876953 4003.500244,3503.343506 
	C3880.815918,3528.416992 3758.130859,3553.486328 3635.432129,3578.488525 
	C3514.689697,3603.092285 3393.916748,3627.545166 3273.183105,3652.191895 
	C3145.927246,3678.169922 3018.705078,3704.312988 2891.462646,3730.357666 
	C2787.056885,3751.728516 2682.657715,3773.132324 2578.197998,3794.236084 
	C2571.890381,3795.510498 2564.857910,3795.317871 2558.524414,3794.030273 
	C2433.204102,3768.556396 2307.944824,3742.782715 2182.655273,3717.156494 
	C2137.632812,3707.947998 2092.563965,3698.966797 2045.869873,3689.452637 
M1557.286987,2776.220947 
	C1533.180786,2771.478027 1509.053223,2766.840820 1484.973145,2761.968506 
	C1442.015625,2753.276367 1399.089233,2744.428955 1356.144775,2735.671143 
	C1306.696289,2725.586914 1257.230103,2715.588623 1207.795776,2705.435791 
	C1181.123901,2699.958008 1154.515137,2694.172119 1127.840576,2688.707764 
	C1124.770386,2688.078613 1121.460083,2688.622314 1118.325562,2688.622314 
	C1114.287720,2697.218018 1115.794678,2705.324463 1115.791748,2713.154541 
	C1115.705322,2947.065674 1115.722168,3180.977051 1115.723389,3414.888184 
	C1115.723389,3418.220215 1115.544312,3421.566162 1115.783325,3424.881104 
	C1116.109741,3429.414307 1116.757080,3433.923828 1117.336548,3439.061035 
	C1124.333984,3440.865723 1130.663452,3442.809814 1137.122314,3444.111328 
	C1166.416748,3450.014160 1195.784912,3455.554688 1225.057373,3461.563232 
	C1273.844971,3471.576660 1322.557007,3481.958496 1371.342529,3491.982178 
	C1427.280640,3503.476074 1483.276123,3514.689697 1539.223877,3526.136963 
	C1580.864624,3534.657471 1622.435181,3543.523438 1664.098389,3551.930908 
	C1713.569458,3561.914062 1763.148560,3571.363525 1812.602417,3581.429688 
	C1861.403687,3591.363525 1910.082153,3601.899170 1958.859619,3611.952393 
	C2015.437988,3623.613525 2072.063965,3635.043701 2128.671875,3646.562256 
	C2170.970215,3655.168945 2213.268066,3663.777832 2255.573975,3672.347412 
	C2297.877197,3680.916748 2340.212402,3689.327637 2382.492188,3698.009277 
	C2429.979248,3707.759521 2477.403320,3717.819824 2524.911377,3727.464844 
	C2529.056152,3728.306396 2533.623779,3727.064209 2538.384033,3726.765381 
	C2538.945068,3722.917236 2539.648682,3720.344971 2539.648682,3717.772461 
	C2539.668701,3292.604004 2539.639893,2867.435303 2539.529785,2442.266846 
	C2539.529541,2441.307129 2538.312012,2440.347900 2537.615723,2439.318604 
	C2533.133545,2439.264648 2532.929443,2443.062988 2531.694580,2445.932129 
	C2516.963623,2480.159668 2502.228027,2514.385742 2487.496826,2548.613525 
	C2474.607422,2578.562988 2461.675049,2608.494385 2448.844971,2638.469238 
	C2429.995361,2682.508545 2411.192139,2726.567627 2392.422852,2770.640869 
	C2378.606689,2803.083008 2364.914307,2835.577393 2351.088135,2868.015137 
	C2345.347168,2881.483154 2339.800049,2895.055908 2333.448730,2908.236328 
	C2325.243896,2925.262939 2316.948242,2929.847656 2298.371338,2927.650391 
	C2288.510986,2926.484131 2278.801270,2923.999756 2269.044189,2922.009766 
	C2226.100098,2913.251465 2183.162842,2904.460205 2140.224365,2895.674316 
	C2103.795166,2888.220215 2067.374756,2880.722412 2030.937622,2873.306885 
	C1988.637817,2864.698730 1946.323730,2856.161133 1904.016479,2847.589355 
	C1861.712646,2839.018555 1819.399048,2830.495850 1777.109253,2821.856689 
	C1734.818604,2813.217773 1692.539429,2804.520752 1650.279175,2795.734131 
	C1620.371948,2789.516113 1590.504639,2783.105957 1557.286987,2776.220947 
M4020.571533,3318.000000 
	C4020.571533,3118.056885 4020.571777,2918.114014 4020.570312,2718.170898 
	C4020.570312,2712.172607 4020.821777,2706.156738 4020.437988,2700.182373 
	C4020.197510,2696.442383 4018.986572,2692.764648 4018.079834,2688.430908 
	C4013.209473,2688.814697 4009.236816,2688.708252 4005.447510,2689.490234 
	C3957.314697,2699.421143 3909.232178,2709.594727 3861.089355,2719.476807 
	C3804.492676,2731.093994 3747.845459,2742.465820 3691.228271,2753.981934 
	C3648.926270,2762.586426 3606.649414,2771.315186 3564.337891,2779.873047 
	C3515.516602,2789.747803 3466.645508,2799.377686 3417.840820,2809.333496 
	C3375.543701,2817.961914 3333.325928,2826.980469 3291.042480,2835.676025 
	C3235.098877,2847.181152 3179.124756,2858.538574 3123.164307,2869.961182 
	C3080.870850,2878.593994 3038.579590,2887.239502 2996.283936,2895.860596 
	C2959.842285,2903.288086 2923.391846,2910.673096 2886.951904,2918.109375 
	C2871.986572,2921.163574 2857.097900,2924.635986 2842.067627,2927.320312 
	C2821.959717,2930.911377 2810.884521,2924.605957 2802.732422,2905.842285 
	C2792.919922,2883.257568 2783.038086,2860.702637 2773.272217,2838.097656 
	C2759.811035,2806.940918 2746.381348,2775.769775 2733.026611,2744.567139 
	C2714.437988,2701.136719 2695.922852,2657.675293 2677.391357,2614.220459 
	C2663.556885,2581.780762 2649.755859,2549.326172 2635.921143,2516.886230 
	C2626.523193,2494.850342 2617.220947,2472.771484 2607.520996,2450.869141 
	C2606.245605,2447.989258 2606.171387,2442.347412 2599.258789,2444.208008 
	C2599.258789,2451.325195 2599.259033,2458.621094 2599.258789,2465.917236 
	C2599.252441,2877.801270 2599.245850,3289.685547 2599.241211,3701.569580 
	C2599.241211,3706.234863 2598.994385,3710.922363 2599.367676,3715.558838 
	C2599.674561,3719.374512 2600.731201,3723.129639 2601.474365,3727.010986 
	C2606.267578,3727.010986 2610.280762,3727.586426 2614.065430,3726.900879 
	C2624.515869,3725.008789 2634.848633,3722.480713 2645.266602,3720.398438 
	C2694.761475,3710.507324 2744.302979,3700.848145 2793.761963,3690.782715 
	C2842.569092,3680.849854 2891.275146,3670.422363 2940.065186,3660.405518 
	C2996.015869,3648.918945 3052.022461,3637.706787 3107.981201,3626.259033 
	C3149.621826,3617.740723 3191.192871,3608.879639 3232.853027,3600.459717 
	C3282.325928,3590.460449 3331.899658,3580.958008 3381.358887,3570.893066 
	C3430.168457,3560.960449 3478.869141,3550.494385 3527.655029,3540.445068 
	C3584.244873,3528.787598 3640.882324,3517.360352 3697.487061,3505.776123 
	C3744.984375,3496.055908 3792.445312,3486.159180 3839.956787,3476.510986 
	C3894.626221,3465.410156 3949.344727,3454.550537 4004.006836,3443.413818 
	C4009.089111,3442.378662 4013.918945,3440.104248 4018.111816,3438.664551 
	C4019.070801,3436.351807 4020.001465,3435.147949 4020.009277,3433.938477 
	C4020.252686,3396.625977 4020.405518,3359.312988 4020.571533,3318.000000 
M2633.643555,2360.388184 
	C2655.785400,2412.428711 2677.833008,2464.509277 2700.095947,2516.498047 
	C2721.837646,2567.269531 2743.914307,2617.897705 2765.634766,2668.677979 
	C2791.277588,2728.629395 2816.656982,2788.693604 2842.279541,2848.653564 
	C2844.568604,2854.010498 2847.805176,2858.962158 2850.906494,2864.662109 
	C3319.161377,2769.319336 3786.313477,2674.206299 4253.451660,2579.025391 
	C4259.175293,2577.859375 4264.722656,2575.825684 4270.567383,2574.134521 
	C4270.211426,2571.469971 4270.363281,2569.382568 4269.638184,2567.666504 
	C4261.088379,2547.438721 4252.446777,2527.250000 4243.752441,2507.083740 
	C4225.838379,2465.529785 4207.769043,2424.042480 4189.964844,2382.441406 
	C4167.974609,2331.060059 4146.222656,2279.576172 4124.304688,2228.163818 
	C4101.081543,2173.687988 4077.818359,2119.229492 4054.493408,2064.797119 
	C4048.727295,2051.340088 4042.872070,2037.912354 4036.644043,2024.665771 
	C4032.908936,2016.721558 4030.147217,2015.433594 4022.658203,2016.918945 
	C4002.468994,2020.923828 3982.293213,2025.001099 3962.138916,2029.178589 
	C3913.370117,2039.286499 3864.638672,2049.576416 3815.850830,2059.590820 
	C3759.907471,2071.074219 3703.906250,2082.276367 3647.954590,2093.719971 
	C3606.316650,2102.236328 3564.749756,2111.102539 3523.092529,2119.522217 
	C3473.623047,2129.521729 3424.033691,2138.933350 3374.598877,2149.097900 
	C3301.092041,2164.212646 3227.725098,2180.008301 3154.205811,2195.061523 
	C3078.740723,2210.513184 3003.145020,2225.326416 2927.641113,2240.591309 
	C2829.355957,2260.461914 2731.097412,2280.466064 2632.854980,2300.546631 
	C2625.954346,2301.957031 2619.279297,2304.471924 2611.482910,2306.773438 
	C2617.381348,2325.259277 2625.172363,2341.319092 2633.643555,2360.388184 
M1003.272827,2249.472412 
	C990.915649,2278.211670 978.494812,2306.923584 966.213623,2335.695312 
	C935.642700,2407.315430 905.068115,2478.934570 874.706482,2550.643799 
	C871.674133,2557.805664 867.146118,2564.817139 868.539917,2574.227295 
	C875.230286,2576.540527 881.943420,2578.879883 889.205750,2580.259521 
	C925.099915,2587.078857 960.952637,2594.131348 996.746887,2601.458496 
	C1058.568237,2614.113525 1120.317261,2627.121338 1182.130859,2639.814453 
	C1238.738647,2651.438721 1295.395142,2662.825928 1352.023804,2674.349121 
	C1394.337891,2682.958984 1436.634644,2691.654541 1478.952393,2700.246338 
	C1528.426025,2710.290527 1577.932129,2720.175049 1627.390015,2730.295654 
	C1668.390747,2738.685547 1709.326050,2747.394531 1750.318970,2755.823486 
	C1807.573364,2767.595703 1864.844238,2779.289062 1922.127441,2790.920410 
	C1964.444092,2799.512695 2006.791748,2807.952148 2049.125488,2816.459717 
	C2090.154297,2824.704834 2131.215576,2832.791260 2172.201660,2841.243408 
	C2206.679199,2848.353271 2241.053711,2855.962402 2275.519043,2863.132568 
	C2279.246338,2863.907959 2283.274414,2863.237061 2288.358643,2863.237061 
	C2366.744385,2679.355225 2446.390137,2496.350342 2523.480469,2312.248291 
	C2524.147217,2310.655762 2523.247314,2308.406738 2523.032959,2305.934326 
	C2520.489258,2305.139648 2518.052002,2304.161133 2515.520996,2303.619873 
	C2479.142090,2295.838379 2442.794678,2287.902100 2406.353271,2280.423096 
	C2328.922852,2264.531738 2251.441406,2248.888428 2173.982666,2233.134766 
	C2161.311768,2230.557617 2149.467773,2231.313477 2137.019287,2236.554688 
	C2089.435791,2256.590088 2039.378906,2267.249756 1988.069458,2271.192139 
	C1947.399048,2274.317383 1906.847168,2270.394775 1866.994507,2262.318359 
	C1806.320801,2250.022461 1750.160278,2226.096436 1698.610474,2191.789795 
	C1671.955933,2174.051025 1647.036377,2154.022461 1625.187500,2130.487793 
	C1617.103882,2121.780518 1607.822388,2117.193604 1595.900635,2115.281982 
	C1572.970947,2111.605469 1550.327271,2106.156250 1527.551514,2101.507568 
	C1485.246338,2092.873047 1442.937256,2084.257812 1400.619507,2075.685303 
	C1358.302856,2067.113037 1315.949951,2058.718018 1273.655884,2050.036377 
	C1220.303223,2039.084595 1166.998779,2027.897095 1113.660156,2016.876221 
	C1106.056396,2015.305054 1103.392700,2016.711060 1099.691895,2024.620850 
	C1096.028076,2032.451538 1092.844604,2040.507324 1089.456909,2048.467041 
	C1075.381836,2081.537354 1061.380737,2114.639404 1047.215576,2147.671143 
	C1033.049194,2180.705322 1018.719604,2213.669434 1003.272827,2249.472412 
M2364.367432,1742.141602 
	C2347.080078,1632.263916 2294.242676,1542.957275 2205.588867,1476.391235 
	C2102.364746,1398.884766 1986.145264,1377.079956 1861.115479,1406.252197 
	C1774.718384,1426.410522 1703.304199,1472.878540 1646.185059,1540.562744 
	C1592.257446,1604.464722 1561.136841,1678.683960 1552.825806,1761.738647 
	C1547.412842,1815.833008 1551.833252,1869.534302 1568.187134,1921.800415 
	C1591.839600,1997.393921 1632.916016,2061.673096 1693.318481,2113.190430 
	C1756.878174,2167.400391 1829.959961,2199.680908 1913.228027,2209.298584 
	C1960.102539,2214.713135 2006.385864,2212.489746 2052.085693,2201.634277 
	C2152.017578,2177.896729 2232.885254,2124.611572 2292.552490,2040.967529 
	C2355.716064,1952.422119 2379.144531,1853.509644 2364.367432,1742.141602 
M2732.071533,1741.845581 
	C2710.608887,1737.416260 2689.255127,1732.332520 2667.653320,1728.739990 
	C2645.614014,1725.074951 2624.065674,1718.289673 2602.243164,1716.826416 
	C2595.610352,1724.594727 2596.498047,1732.757080 2596.487061,1740.661011 
	C2596.437500,1775.984863 2596.465088,1811.308716 2596.465088,1846.632568 
	C2596.465088,1967.933472 2596.498779,2089.234375 2596.412598,2210.535156 
	C2596.404297,2222.521484 2596.940674,2234.315186 2601.239258,2245.259277 
	C2602.298340,2245.806885 2602.830811,2246.186523 2603.424072,2246.360107 
	C2604.054199,2246.544189 2604.777344,2246.708496 2605.398682,2246.581543 
	C3034.217041,2159.096436 3463.030273,2071.586670 3891.840332,1984.060669 
	C3893.114014,1983.800659 3894.362061,1983.354492 3895.564941,1982.856812 
	C3895.831787,1982.746460 3895.856201,1982.049805 3896.303223,1980.645630 
	C3891.963623,1979.261597 3887.701416,1977.495728 3883.264404,1976.561768 
	C3868.968018,1973.552490 3854.593506,1970.918945 3840.273926,1968.016602 
	C3784.303223,1956.671753 3728.341309,1945.283691 3672.377930,1933.903198 
	C3629.424561,1925.168335 3586.470459,1916.434814 3543.521729,1907.676758 
	C3494.070068,1897.592529 3444.618896,1887.507080 3395.177002,1877.376099 
	C3347.679688,1867.643799 3300.201172,1857.819946 3252.702393,1848.094971 
	C3196.102295,1836.506470 3139.494141,1824.957397 3082.880127,1813.436157 
	C3040.578125,1804.827393 2998.257324,1796.311279 2955.952393,1787.716064 
	C2906.493408,1777.667725 2857.045654,1767.564819 2807.587646,1757.512329 
	C2783.501465,1752.616821 2759.402588,1747.781860 2732.071533,1741.845581 
M2539.822021,1794.001709 
	C2539.814697,1772.014771 2539.910889,1750.026855 2539.698486,1728.041870 
	C2539.662842,1724.352173 2538.292480,1720.675537 2537.585205,1717.218262 
	C2522.391113,1717.350220 2447.744873,1732.106445 2424.828369,1739.406982 
	C2424.828369,1744.909424 2424.503906,1750.766113 2424.900635,1756.573364 
	C2425.578369,1766.490356 2427.345947,1776.365601 2427.517090,1786.277954 
	C2427.883789,1807.536499 2427.379883,1828.687744 2424.836670,1849.970459 
	C2422.468262,1869.791016 2420.163574,1889.559448 2415.571045,1908.931763 
	C2402.554932,1963.832764 2380.886230,2015.094360 2349.136230,2061.874268 
	C2326.288818,2095.536865 2301.760498,2127.759521 2269.332520,2153.113037 
	C2259.389404,2160.886719 2249.870361,2169.227295 2240.490967,2177.678711 
	C2238.504395,2179.468750 2237.974365,2182.875488 2236.492920,2186.157959 
	C2258.124512,2190.878906 2278.178955,2195.391357 2298.295654,2199.607666 
	C2318.438965,2203.829346 2338.646973,2207.743164 2358.822021,2211.813721 
	C2378.343994,2215.752441 2397.862549,2219.706055 2417.378174,2223.676025 
	C2437.547119,2227.778809 2457.645508,2232.270752 2477.895020,2235.925537 
	C2497.815430,2239.520996 2517.350586,2245.741211 2537.370361,2246.612061 
	C2538.410400,2244.125244 2539.354980,2242.919922 2539.356689,2241.713623 
	C2539.556885,2093.809326 2539.687500,1945.905029 2539.822021,1794.001709 
M1444.740845,2024.951538 
	C1482.094360,2033.114380 1519.559814,2040.682251 1558.088989,2047.777954 
	C1557.284790,2044.195923 1557.252808,2042.108765 1556.382812,2040.464844 
	C1538.639526,2006.937622 1522.401123,1972.788086 1511.470459,1936.303589 
	C1509.201294,1928.729370 1506.205811,1927.339233 1497.906616,1927.677124 
	C1494.594116,1927.811890 1491.241211,1928.055542 1488.002075,1928.716919 
	C1452.941162,1935.874268 1417.909302,1943.173218 1382.849854,1950.337769 
	C1340.648071,1958.961914 1298.416382,1967.440796 1256.227295,1976.126343 
	C1250.510742,1977.303345 1244.966431,1979.316040 1235.735840,1981.984253 
	C1246.978271,1984.555786 1254.519287,1986.440308 1262.128052,1987.992798 
	C1291.995728,1994.086426 1321.889160,2000.053955 1351.764648,2006.109253 
	C1381.643311,2012.165283 1411.511963,2018.270142 1444.740845,2024.951538 
z"/>
<path fill="#98DBF6" opacity="1.000000" stroke="none" 
	d="
M1558.953369,2776.501221 
	C1590.504639,2783.105957 1620.371948,2789.516113 1650.279175,2795.734131 
	C1692.539429,2804.520752 1734.818604,2813.217773 1777.109253,2821.856689 
	C1819.399048,2830.495850 1861.712646,2839.018555 1904.016479,2847.589355 
	C1946.323730,2856.161133 1988.637817,2864.698730 2030.937622,2873.306885 
	C2067.374756,2880.722412 2103.795166,2888.220215 2140.224365,2895.674316 
	C2183.162842,2904.460205 2226.100098,2913.251465 2269.044189,2922.009766 
	C2278.801270,2923.999756 2288.510986,2926.484131 2298.371338,2927.650391 
	C2316.948242,2929.847656 2325.243896,2925.262939 2333.448730,2908.236328 
	C2339.800049,2895.055908 2345.347168,2881.483154 2351.088135,2868.015137 
	C2364.914307,2835.577393 2378.606689,2803.083008 2392.422852,2770.640869 
	C2411.192139,2726.567627 2429.995361,2682.508545 2448.844971,2638.469238 
	C2461.675049,2608.494385 2474.607422,2578.562988 2487.496826,2548.613525 
	C2502.228027,2514.385742 2516.963623,2480.159668 2531.694580,2445.932129 
	C2532.929443,2443.062988 2533.133545,2439.264648 2537.615723,2439.318604 
	C2538.312012,2440.347900 2539.529541,2441.307129 2539.529785,2442.266846 
	C2539.639893,2867.435303 2539.668701,3292.604004 2539.648682,3717.772461 
	C2539.648682,3720.344971 2538.945068,3722.917236 2538.384033,3726.765381 
	C2533.623779,3727.064209 2529.056152,3728.306396 2524.911377,3727.464844 
	C2477.403320,3717.819824 2429.979248,3707.759521 2382.492188,3698.009277 
	C2340.212402,3689.327637 2297.877197,3680.916748 2255.573975,3672.347412 
	C2213.268066,3663.777832 2170.970215,3655.168945 2128.671875,3646.562256 
	C2072.063965,3635.043701 2015.437988,3623.613525 1958.859619,3611.952393 
	C1910.082153,3601.899170 1861.403687,3591.363525 1812.602417,3581.429688 
	C1763.148560,3571.363525 1713.569458,3561.914062 1664.098389,3551.930908 
	C1622.435181,3543.523438 1580.864624,3534.657471 1539.223877,3526.136963 
	C1483.276123,3514.689697 1427.280640,3503.476074 1371.342529,3491.982178 
	C1322.557007,3481.958496 1273.844971,3471.576660 1225.057373,3461.563232 
	C1195.784912,3455.554688 1166.416748,3450.014160 1137.122314,3444.111328 
	C1130.663452,3442.809814 1124.333984,3440.865723 1117.336548,3439.061035 
	C1116.757080,3433.923828 1116.109741,3429.414307 1115.783325,3424.881104 
	C1115.544312,3421.566162 1115.723389,3418.220215 1115.723389,3414.888184 
	C1115.722168,3180.977051 1115.705322,2947.065674 1115.791748,2713.154541 
	C1115.794678,2705.324463 1114.287720,2697.218018 1118.325562,2688.622314 
	C1121.460083,2688.622314 1124.770386,2688.078613 1127.840576,2688.707764 
	C1154.515137,2694.172119 1181.123901,2699.958008 1207.795776,2705.435791 
	C1257.230103,2715.588623 1306.696289,2725.586914 1356.144775,2735.671143 
	C1399.089233,2744.428955 1442.015625,2753.276367 1484.973145,2761.968506 
	C1509.053223,2766.840820 1533.180786,2771.478027 1558.953369,2776.501221 
z"/>
<path fill="#98DBF6" opacity="1.000000" stroke="none" 
	d="
M4020.572021,3320.000000 
	C4020.405518,3359.312988 4020.252686,3396.625977 4020.009277,3433.938477 
	C4020.001465,3435.147949 4019.070801,3436.351807 4018.111816,3438.664551 
	C4013.918945,3440.104248 4009.089111,3442.378662 4004.006836,3443.413818 
	C3949.344727,3454.550537 3894.626221,3465.410156 3839.956787,3476.510986 
	C3792.445312,3486.159180 3744.984375,3496.055908 3697.487061,3505.776123 
	C3640.882324,3517.360352 3584.244873,3528.787598 3527.655029,3540.445068 
	C3478.869141,3550.494385 3430.168457,3560.960449 3381.358887,3570.893066 
	C3331.899658,3580.958008 3282.325928,3590.460449 3232.853027,3600.459717 
	C3191.192871,3608.879639 3149.621826,3617.740723 3107.981201,3626.259033 
	C3052.022461,3637.706787 2996.015869,3648.918945 2940.065186,3660.405518 
	C2891.275146,3670.422363 2842.569092,3680.849854 2793.761963,3690.782715 
	C2744.302979,3700.848145 2694.761475,3710.507324 2645.266602,3720.398438 
	C2634.848633,3722.480713 2624.515869,3725.008789 2614.065430,3726.900879 
	C2610.280762,3727.586426 2606.267578,3727.010986 2601.474365,3727.010986 
	C2600.731201,3723.129639 2599.674561,3719.374512 2599.367676,3715.558838 
	C2598.994385,3710.922363 2599.241211,3706.234863 2599.241211,3701.569580 
	C2599.245850,3289.685547 2599.252441,2877.801270 2599.258789,2465.917236 
	C2599.259033,2458.621094 2599.258789,2451.325195 2599.258789,2444.208008 
	C2606.171387,2442.347412 2606.245605,2447.989258 2607.520996,2450.869141 
	C2617.220947,2472.771484 2626.523193,2494.850342 2635.921143,2516.886230 
	C2649.755859,2549.326172 2663.556885,2581.780762 2677.391357,2614.220459 
	C2695.922852,2657.675293 2714.437988,2701.136719 2733.026611,2744.567139 
	C2746.381348,2775.769775 2759.811035,2806.940918 2773.272217,2838.097656 
	C2783.038086,2860.702637 2792.919922,2883.257568 2802.732422,2905.842285 
	C2810.884521,2924.605957 2821.959717,2930.911377 2842.067627,2927.320312 
	C2857.097900,2924.635986 2871.986572,2921.163574 2886.951904,2918.109375 
	C2923.391846,2910.673096 2959.842285,2903.288086 2996.283936,2895.860596 
	C3038.579590,2887.239502 3080.870850,2878.593994 3123.164307,2869.961182 
	C3179.124756,2858.538574 3235.098877,2847.181152 3291.042480,2835.676025 
	C3333.325928,2826.980469 3375.543701,2817.961914 3417.840820,2809.333496 
	C3466.645508,2799.377686 3515.516602,2789.747803 3564.337891,2779.873047 
	C3606.649414,2771.315186 3648.926270,2762.586426 3691.228271,2753.981934 
	C3747.845459,2742.465820 3804.492676,2731.093994 3861.089355,2719.476807 
	C3909.232178,2709.594727 3957.314697,2699.421143 4005.447510,2689.490234 
	C4009.236816,2688.708252 4013.209473,2688.814697 4018.079834,2688.430908 
	C4018.986572,2692.764648 4020.197510,2696.442383 4020.437988,2700.182373 
	C4020.821777,2706.156738 4020.570312,2712.172607 4020.570312,2718.170898 
	C4020.571777,2918.114014 4020.571533,3118.056885 4020.572021,3320.000000 
z"/>
<path fill="#98DBF6" opacity="1.000000" stroke="none" 
	d="
M2633.003906,2359.000244 
	C2625.172363,2341.319092 2617.381348,2325.259277 2611.482910,2306.773438 
	C2619.279297,2304.471924 2625.954346,2301.957031 2632.854980,2300.546631 
	C2731.097412,2280.466064 2829.355957,2260.461914 2927.641113,2240.591309 
	C3003.145020,2225.326416 3078.740723,2210.513184 3154.205811,2195.061523 
	C3227.725098,2180.008301 3301.092041,2164.212646 3374.598877,2149.097900 
	C3424.033691,2138.933350 3473.623047,2129.521729 3523.092529,2119.522217 
	C3564.749756,2111.102539 3606.316650,2102.236328 3647.954590,2093.719971 
	C3703.906250,2082.276367 3759.907471,2071.074219 3815.850830,2059.590820 
	C3864.638672,2049.576416 3913.370117,2039.286499 3962.138916,2029.178589 
	C3982.293213,2025.001099 4002.468994,2020.923828 4022.658203,2016.918945 
	C4030.147217,2015.433594 4032.908936,2016.721558 4036.644043,2024.665771 
	C4042.872070,2037.912354 4048.727295,2051.340088 4054.493408,2064.797119 
	C4077.818359,2119.229492 4101.081543,2173.687988 4124.304688,2228.163818 
	C4146.222656,2279.576172 4167.974609,2331.060059 4189.964844,2382.441406 
	C4207.769043,2424.042480 4225.838379,2465.529785 4243.752441,2507.083740 
	C4252.446777,2527.250000 4261.088379,2547.438721 4269.638184,2567.666504 
	C4270.363281,2569.382568 4270.211426,2571.469971 4270.567383,2574.134521 
	C4264.722656,2575.825684 4259.175293,2577.859375 4253.451660,2579.025391 
	C3786.313477,2674.206299 3319.161377,2769.319336 2850.906494,2864.662109 
	C2847.805176,2858.962158 2844.568604,2854.010498 2842.279541,2848.653564 
	C2816.656982,2788.693604 2791.277588,2728.629395 2765.634766,2668.677979 
	C2743.914307,2617.897705 2721.837646,2567.269531 2700.095947,2516.498047 
	C2677.833008,2464.509277 2655.785400,2412.428711 2633.003906,2359.000244 
z"/>
<path fill="#98DBF6" opacity="1.000000" stroke="none" 
	d="
M1003.867188,2248.068359 
	C1018.719604,2213.669434 1033.049194,2180.705322 1047.215576,2147.671143 
	C1061.380737,2114.639404 1075.381836,2081.537354 1089.456909,2048.467041 
	C1092.844604,2040.507324 1096.028076,2032.451538 1099.691895,2024.620850 
	C1103.392700,2016.711060 1106.056396,2015.305054 1113.660156,2016.876221 
	C1166.998779,2027.897095 1220.303223,2039.084595 1273.655884,2050.036377 
	C1315.949951,2058.718018 1358.302856,2067.113037 1400.619507,2075.685303 
	C1442.937256,2084.257812 1485.246338,2092.873047 1527.551514,2101.507568 
	C1550.327271,2106.156250 1572.970947,2111.605469 1595.900635,2115.281982 
	C1607.822388,2117.193604 1617.103882,2121.780518 1625.187500,2130.487793 
	C1647.036377,2154.022461 1671.955933,2174.051025 1698.610474,2191.789795 
	C1750.160278,2226.096436 1806.320801,2250.022461 1866.994507,2262.318359 
	C1906.847168,2270.394775 1947.399048,2274.317383 1988.069458,2271.192139 
	C2039.378906,2267.249756 2089.435791,2256.590088 2137.019287,2236.554688 
	C2149.467773,2231.313477 2161.311768,2230.557617 2173.982666,2233.134766 
	C2251.441406,2248.888428 2328.922852,2264.531738 2406.353271,2280.423096 
	C2442.794678,2287.902100 2479.142090,2295.838379 2515.520996,2303.619873 
	C2518.052002,2304.161133 2520.489258,2305.139648 2523.032959,2305.934326 
	C2523.247314,2308.406738 2524.147217,2310.655762 2523.480469,2312.248291 
	C2446.390137,2496.350342 2366.744385,2679.355225 2288.358643,2863.237061 
	C2283.274414,2863.237061 2279.246338,2863.907959 2275.519043,2863.132568 
	C2241.053711,2855.962402 2206.679199,2848.353271 2172.201660,2841.243408 
	C2131.215576,2832.791260 2090.154297,2824.704834 2049.125488,2816.459717 
	C2006.791748,2807.952148 1964.444092,2799.512695 1922.127441,2790.920410 
	C1864.844238,2779.289062 1807.573364,2767.595703 1750.318970,2755.823486 
	C1709.326050,2747.394531 1668.390747,2738.685547 1627.390015,2730.295654 
	C1577.932129,2720.175049 1528.426025,2710.290527 1478.952393,2700.246338 
	C1436.634644,2691.654541 1394.337891,2682.958984 1352.023804,2674.349121 
	C1295.395142,2662.825928 1238.738647,2651.438721 1182.130859,2639.814453 
	C1120.317261,2627.121338 1058.568237,2614.113525 996.746887,2601.458496 
	C960.952637,2594.131348 925.099915,2587.078857 889.205750,2580.259521 
	C881.943420,2578.879883 875.230286,2576.540527 868.539917,2574.227295 
	C867.146118,2564.817139 871.674133,2557.805664 874.706482,2550.643799 
	C905.068115,2478.934570 935.642700,2407.315430 966.213623,2335.695312 
	C978.494812,2306.923584 990.915649,2278.211670 1003.867188,2248.068359 
z"/>
<path fill="#FDFEFF" opacity="1.000000" stroke="none" 
	d="
M2364.553223,1743.907837 
	C2379.144531,1853.509644 2355.716064,1952.422119 2292.552490,2040.967529 
	C2232.885254,2124.611572 2152.017578,2177.896729 2052.085693,2201.634277 
	C2006.385864,2212.489746 1960.102539,2214.713135 1913.228027,2209.298584 
	C1829.959961,2199.680908 1756.878174,2167.400391 1693.318481,2113.190430 
	C1632.916016,2061.673096 1591.839600,1997.393921 1568.187134,1921.800415 
	C1551.833252,1869.534302 1547.412842,1815.833008 1552.825806,1761.738647 
	C1561.136841,1678.683960 1592.257446,1604.464722 1646.185059,1540.562744 
	C1703.304199,1472.878540 1774.718384,1426.410522 1861.115479,1406.252197 
	C1986.145264,1377.079956 2102.364746,1398.884766 2205.588867,1476.391235 
	C2294.242676,1542.957275 2347.080078,1632.263916 2364.553223,1743.907837 
M2064.314941,1463.334961 
	C2064.404541,1455.302002 2064.423584,1447.370239 2059.194580,1440.431030 
	C2051.651611,1430.421021 2041.632324,1427.531250 2029.432129,1427.634155 
	C1983.450928,1428.022339 1937.464355,1427.788452 1891.479858,1427.793579 
	C1888.814453,1427.793945 1886.137207,1427.692749 1883.485718,1427.899170 
	C1867.368652,1429.155518 1856.731567,1439.936523 1855.641357,1456.265991 
	C1855.331055,1460.911743 1855.530396,1465.592896 1855.530273,1470.257812 
	C1855.526978,1596.215576 1855.528198,1722.173218 1855.529785,1848.130981 
	C1855.529785,1852.129639 1855.380249,1856.136475 1855.580566,1860.125366 
	C1856.489502,1878.232422 1865.799316,1888.421875 1883.552734,1890.748657 
	C1886.182373,1891.093384 1888.872681,1891.056274 1891.534912,1891.057373 
	C1936.853027,1891.077148 1982.171143,1891.113770 2027.489014,1891.018921 
	C2032.110840,1891.009155 2036.855347,1890.704346 2041.328613,1889.637451 
	C2055.191895,1886.331299 2062.971191,1877.169434 2064.112061,1862.916626 
	C2064.589355,1856.953979 2064.311035,1850.927856 2064.311523,1844.930542 
	C2064.319580,1718.972778 2064.318604,1593.015137 2064.314941,1463.334961 
M2045.564331,2099.086182 
	C2061.541992,2074.118408 2064.857666,2046.827026 2058.220703,2018.628784 
	C2048.881348,1978.947998 2008.652832,1937.373291 1948.161743,1943.390625 
	C1900.366699,1948.144897 1863.153442,1990.006592 1858.803589,2033.811768 
	C1851.534912,2107.012695 1922.666382,2166.252930 1996.151367,2139.219482 
	C2016.030396,2131.906250 2031.802612,2118.892334 2045.564331,2099.086182 
z"/>
<path fill="#97DBF6" opacity="1.000000" stroke="none" 
	d="
M2733.690430,1742.382568 
	C2759.402588,1747.781860 2783.501465,1752.616821 2807.587646,1757.512329 
	C2857.045654,1767.564819 2906.493408,1777.667725 2955.952393,1787.716064 
	C2998.257324,1796.311279 3040.578125,1804.827393 3082.880127,1813.436157 
	C3139.494141,1824.957397 3196.102295,1836.506470 3252.702393,1848.094971 
	C3300.201172,1857.819946 3347.679688,1867.643799 3395.177002,1877.376099 
	C3444.618896,1887.507080 3494.070068,1897.592529 3543.521729,1907.676758 
	C3586.470459,1916.434814 3629.424561,1925.168335 3672.377930,1933.903198 
	C3728.341309,1945.283691 3784.303223,1956.671753 3840.273926,1968.016602 
	C3854.593506,1970.918945 3868.968018,1973.552490 3883.264404,1976.561768 
	C3887.701416,1977.495728 3891.963623,1979.261597 3896.303223,1980.645630 
	C3895.856201,1982.049805 3895.831787,1982.746460 3895.564941,1982.856812 
	C3894.362061,1983.354492 3893.114014,1983.800659 3891.840332,1984.060669 
	C3463.030273,2071.586670 3034.217041,2159.096436 2605.398682,2246.581543 
	C2604.777344,2246.708496 2604.054199,2246.544189 2603.424072,2246.360107 
	C2602.830811,2246.186523 2602.298340,2245.806885 2601.239258,2245.259277 
	C2596.940674,2234.315186 2596.404297,2222.521484 2596.412598,2210.535156 
	C2596.498779,2089.234375 2596.465088,1967.933472 2596.465088,1846.632568 
	C2596.465088,1811.308716 2596.437500,1775.984863 2596.487061,1740.661011 
	C2596.498047,1732.757080 2595.610352,1724.594727 2602.243164,1716.826416 
	C2624.065674,1718.289673 2645.614014,1725.074951 2667.653320,1728.739990 
	C2689.255127,1732.332520 2710.608887,1737.416260 2733.690430,1742.382568 
z"/>
<path fill="#97DAF6" opacity="1.000000" stroke="none" 
	d="
M2539.821777,1796.001221 
	C2539.687500,1945.905029 2539.556885,2093.809326 2539.356689,2241.713623 
	C2539.354980,2242.919922 2538.410400,2244.125244 2537.370361,2246.612061 
	C2517.350586,2245.741211 2497.815430,2239.520996 2477.895020,2235.925537 
	C2457.645508,2232.270752 2437.547119,2227.778809 2417.378174,2223.676025 
	C2397.862549,2219.706055 2378.343994,2215.752441 2358.822021,2211.813721 
	C2338.646973,2207.743164 2318.438965,2203.829346 2298.295654,2199.607666 
	C2278.178955,2195.391357 2258.124512,2190.878906 2236.492920,2186.157959 
	C2237.974365,2182.875488 2238.504395,2179.468750 2240.490967,2177.678711 
	C2249.870361,2169.227295 2259.389404,2160.886719 2269.332520,2153.113037 
	C2301.760498,2127.759521 2326.288818,2095.536865 2349.136230,2061.874268 
	C2380.886230,2015.094360 2402.554932,1963.832764 2415.571045,1908.931763 
	C2420.163574,1889.559448 2422.468262,1869.791016 2424.836670,1849.970459 
	C2427.379883,1828.687744 2427.883789,1807.536499 2427.517090,1786.277954 
	C2427.345947,1776.365601 2425.578369,1766.490356 2424.900635,1756.573364 
	C2424.503906,1750.766113 2424.828369,1744.909424 2424.828369,1739.406982 
	C2447.744873,1732.106445 2522.391113,1717.350220 2537.585205,1717.218262 
	C2538.292480,1720.675537 2539.662842,1724.352173 2539.698486,1728.041870 
	C2539.910889,1750.026855 2539.814697,1772.014771 2539.821777,1796.001221 
z"/>
<path fill="#94D9F5" opacity="1.000000" stroke="none" 
	d="
M1443.062988,2024.652588 
	C1411.511963,2018.270142 1381.643311,2012.165283 1351.764648,2006.109253 
	C1321.889160,2000.053955 1291.995728,1994.086426 1262.128052,1987.992798 
	C1254.519287,1986.440308 1246.978271,1984.555786 1235.735840,1981.984253 
	C1244.966431,1979.316040 1250.510742,1977.303345 1256.227295,1976.126343 
	C1298.416382,1967.440796 1340.648071,1958.961914 1382.849854,1950.337769 
	C1417.909302,1943.173218 1452.941162,1935.874268 1488.002075,1928.716919 
	C1491.241211,1928.055542 1494.594116,1927.811890 1497.906616,1927.677124 
	C1506.205811,1927.339233 1509.201294,1928.729370 1511.470459,1936.303589 
	C1522.401123,1972.788086 1538.639526,2006.937622 1556.382812,2040.464844 
	C1557.252808,2042.108765 1557.284790,2044.195923 1558.088989,2047.777954 
	C1519.559814,2040.682251 1482.094360,2033.114380 1443.062988,2024.652588 
z"/>
<path fill="#2CA8DD" opacity="1.000000" stroke="none" 
	d="
M2064.317139,1465.196167 
	C2064.318604,1593.015137 2064.319580,1718.972778 2064.311523,1844.930542 
	C2064.311035,1850.927856 2064.589355,1856.953979 2064.112061,1862.916626 
	C2062.971191,1877.169434 2055.191895,1886.331299 2041.328613,1889.637451 
	C2036.855347,1890.704346 2032.110840,1891.009155 2027.489014,1891.018921 
	C1982.171143,1891.113770 1936.853027,1891.077148 1891.534912,1891.057373 
	C1888.872681,1891.056274 1886.182373,1891.093384 1883.552734,1890.748657 
	C1865.799316,1888.421875 1856.489502,1878.232422 1855.580566,1860.125366 
	C1855.380249,1856.136475 1855.529785,1852.129639 1855.529785,1848.130981 
	C1855.528198,1722.173218 1855.526978,1596.215576 1855.530273,1470.257812 
	C1855.530396,1465.592896 1855.331055,1460.911743 1855.641357,1456.265991 
	C1856.731567,1439.936523 1867.368652,1429.155518 1883.485718,1427.899170 
	C1886.137207,1427.692749 1888.814453,1427.793945 1891.479858,1427.793579 
	C1937.464355,1427.788452 1983.450928,1428.022339 2029.432129,1427.634155 
	C2041.632324,1427.531250 2051.651611,1430.421021 2059.194580,1440.431030 
	C2064.423584,1447.370239 2064.404541,1455.302002 2064.317139,1465.196167 
M2007.594971,1662.000000 
	C2007.595093,1612.053955 2007.596558,1562.107910 2007.593018,1512.161865 
	C2007.592651,1507.500366 2007.728149,1502.831177 2007.510254,1498.179077 
	C2007.010620,1487.517944 2004.757568,1484.719238 1994.670410,1484.590576 
	C1971.366699,1484.293091 1948.053833,1484.309326 1924.750000,1484.609497 
	C1915.543945,1484.728027 1913.108276,1487.555054 1912.539673,1496.771362 
	C1912.252930,1501.416748 1912.409668,1506.091187 1912.409424,1510.752441 
	C1912.404541,1609.978638 1912.377319,1709.204712 1912.465210,1808.430908 
	C1912.471436,1815.582275 1911.270630,1822.980957 1914.664673,1830.788940 
	C1924.534302,1833.192871 1934.492554,1831.949829 1944.307861,1832.133057 
	C1954.959229,1832.332031 1965.624878,1832.428589 1976.270264,1832.104980 
	C1986.022339,1831.808716 1996.036499,1833.736938 2004.795044,1830.627563 
	C2005.949951,1828.131104 2006.962158,1826.960083 2006.968018,1825.784058 
	C2007.232056,1772.522949 2007.408081,1719.261475 2007.594971,1662.000000 
z"/>
<path fill="#2DA8DD" opacity="1.000000" stroke="none" 
	d="
M2044.755615,2100.304932 
	C2031.802612,2118.892334 2016.030396,2131.906250 1996.151367,2139.219482 
	C1922.666382,2166.252930 1851.534912,2107.012695 1858.803589,2033.811768 
	C1863.153442,1990.006592 1900.366699,1948.144897 1948.161743,1943.390625 
	C2008.652832,1937.373291 2048.881348,1978.947998 2058.220703,2018.628784 
	C2064.857666,2046.827026 2061.541992,2074.118408 2044.755615,2100.304932 
M1984.855591,2008.457397 
	C1975.505493,2003.136719 1965.941528,1998.473267 1954.696411,2000.455566 
	C1922.060425,2006.208862 1907.125854,2040.639038 1922.174316,2065.440186 
	C1934.533203,2085.808594 1957.333862,2093.626465 1978.779175,2082.982422 
	C2001.295166,2071.807129 2010.028076,2047.920654 1999.023193,2026.044434 
	C1996.112427,2020.258545 1991.319214,2015.419678 1984.855591,2008.457397 
z"/>
<path fill="#94D9F5" opacity="1.000000" stroke="none" 
	d="
M2007.594727,1664.000000 
	C2007.408081,1719.261475 2007.232056,1772.522949 2006.968018,1825.784058 
	C2006.962158,1826.960083 2005.949951,1828.131104 2004.795044,1830.627563 
	C1996.036499,1833.736938 1986.022339,1831.808716 1976.270264,1832.104980 
	C1965.624878,1832.428589 1954.959229,1832.332031 1944.307861,1832.133057 
	C1934.492554,1831.949829 1924.534302,1833.192871 1914.664673,1830.788940 
	C1911.270630,1822.980957 1912.471436,1815.582275 1912.465210,1808.430908 
	C1912.377319,1709.204712 1912.404541,1609.978638 1912.409424,1510.752441 
	C1912.409668,1506.091187 1912.252930,1501.416748 1912.539673,1496.771362 
	C1913.108276,1487.555054 1915.543945,1484.728027 1924.750000,1484.609497 
	C1948.053833,1484.309326 1971.366699,1484.293091 1994.670410,1484.590576 
	C2004.757568,1484.719238 2007.010620,1487.517944 2007.510254,1498.179077 
	C2007.728149,1502.831177 2007.592651,1507.500366 2007.593018,1512.161865 
	C2007.596558,1562.107910 2007.595093,1612.053955 2007.594727,1664.000000 
z"/>
<path fill="#94D9F5" opacity="1.000000" stroke="none" 
	d="
M1986.123047,2009.301758 
	C1991.319214,2015.419678 1996.112427,2020.258545 1999.023193,2026.044434 
	C2010.028076,2047.920654 2001.295166,2071.807129 1978.779175,2082.982422 
	C1957.333862,2093.626465 1934.533203,2085.808594 1922.174316,2065.440186 
	C1907.125854,2040.639038 1922.060425,2006.208862 1954.696411,2000.455566 
	C1965.941528,1998.473267 1975.505493,2003.136719 1986.123047,2009.301758 
z"/>
</svg>